<svg xmlns="http://www.w3.org/2000/svg" viewBox="0 0 224 256" role="img" aria-label="شخصیت شمارا"><defs><linearGradient id="bird-body" x1="0" y1="0" x2="1" y2="1"><stop stop-color="#55BDC0"/><stop offset=".55" stop-color="#218B92"/><stop offset="1" stop-color="#115E68"/></linearGradient></defs><ellipse cx="111" cy="231" rx="70" ry="9" fill="#15464B" opacity=".08"/><g transform="translate(0 0) "><ellipse cx="81" cy="216" rx="20" ry="9" fill="#115E68"/><ellipse cx="135" cy="216" rx="20" ry="9" fill="#115E68"/><path d="M77 143 Q47 164 60 205 Q109 229 155 205 Q172 170 139 143 Z" fill="#218B92"/><ellipse cx="108" cy="180" rx="30" ry="31" fill="#BEDFC8"/><path d="M78 152 Q57 159 55 184" stroke="#55BDC0" stroke-width="13" stroke-linecap="round"/><g id="head"><path d="M57 95 L65 47 L95 60 Q108 39 121 60 L151 47 L159 95 Q169 148 108 157 Q47 148 57 95" fill="url(#bird-body)"/><ellipse cx="83" cy="99" rx="26" ry="33" fill="#F5EDD3"/><ellipse cx="132" cy="99" rx="26" ry="33" fill="#F5EDD3"/><path d="M98 115 L119 115 L108 131 Z" fill="#D99622"/><g stroke="#23373D" stroke-width="10" stroke-linecap="round" fill="none"><path d="M86 99 v1 M126 99 v1"/></g><path d="M97 127 Q108 135 119 127" stroke="#23373D" stroke-width="3.5" stroke-linecap="round" fill="none"/></g></g></svg>