<svg xmlns="http://www.w3.org/2000/svg" viewBox="0 0 224 256" role="img" aria-label="شخصیت شمارا"><defs><linearGradient id="robotcustom-body" x1="0" y1="0" x2="1" y2="1"><stop stop-color="#55BDC0"/><stop offset=".55" stop-color="#218B92"/><stop offset="1" stop-color="#115E68"/></linearGradient></defs><ellipse cx="111" cy="231" rx="70" ry="9" fill="#15464B" opacity=".08"/><g transform="translate(0 0) "><ellipse cx="81" cy="216" rx="20" ry="9" fill="#115E68"/><ellipse cx="135" cy="216" rx="20" ry="9" fill="#115E68"/><rect x="65" y="151" width="88" height="65" rx="24" fill="#218B92"/><rect x="86" y="168" width="45" height="31" rx="10" fill="#F2D797"/><circle cx="108" cy="183" r="7" fill="#D29A25"/><g id="head"><rect x="54" y="52" width="108" height="103" rx="30" fill="url(#robotcustom-body)"/><rect x="65" y="74" width="86" height="64" rx="23" fill="#DDF1EF"/><path d="M108 52 V37" stroke="#115E68" stroke-width="8"/><circle cx="108" cy="32" r="10" fill="#E9A00E"/><g stroke="#23373D" stroke-width="10" stroke-linecap="round" fill="none"><path d="M86 99 v1 M126 99 v1"/></g><path d="M97 127 Q108 135 119 127" stroke="#23373D" stroke-width="3.5" stroke-linecap="round" fill="none"/><path d="M86 65 Q88 39 105 39 L104 51 Q117 32 129 43 L122 65" fill="#40394B"/><path d="M108 122 Q94 109 85 124 Q94 131 108 126 Q122 132 134 123 Q124 110 108 122" fill="#40394B"/><path d="M59 72 Q62 37 108 37 Q153 37 157 70 L59 70" fill="#57458D"/><path d="M54 73 L167 73" stroke="#A498D2" stroke-width="13" stroke-linecap="round"/><g fill="none" stroke="#40394B" stroke-width="5"><circle cx="86" cy="102" r="17"/><circle cx="127" cy="102" r="17"/><path d="M103 102 H110 M68 99 L58 95 M145 99 L156 95"/></g></g></g></svg>