<svg xmlns="http://www.w3.org/2000/svg" viewBox="0 0 224 256" role="img" aria-label="دانا، حالت فکر" data-character="dana" data-state="think"><title>دانا، حالت فکر</title><g id="dana-root" class="sh-root"><defs><radialGradient id="dana-think-fur" cx=".34" cy=".28" r=".85"><stop offset="0" stop-color="#E89557"/><stop offset=".55" stop-color="#CB6B2E"/><stop offset="1" stop-color="#98461B"/></radialGradient></defs><ellipse id="contact-shadow" cx="108" cy="241" rx="64" ry="8" fill="#15464B" opacity=".12" class="sh-contact-shadow"/><g id="back" class="sh-back"><g id="tail" style="transform-origin:140px 210px" class="sh-tail"><path d="M126 212 C172 214 190 178 176 148 C162 122 156 86 174 64 C188 50 204 58 196 76" fill="none" stroke="#E5C38F" stroke-width="42" stroke-linecap="round"/><path d="M126 212 C172 214 190 178 176 148 C162 122 156 86 174 64 C188 50 204 58 196 76" fill="none" stroke="#F7E1BC" stroke-width="36" stroke-linecap="round"/><path id="tail-pattern" d="M126 212 C172 214 190 178 176 148 C162 122 156 86 174 64 C188 50 204 58 196 76" fill="none" stroke="#8F3963" stroke-width="36" stroke-dasharray="24 22" stroke-dashoffset="4" class="sh-tail-pattern"/><path d="M126 212 C172 214 190 178 176 148 C162 122 156 86 174 64 C188 50 204 58 196 76" fill="none" stroke="#FFFFFF" stroke-width="9" stroke-linecap="round" opacity=".12" transform="translate(-6 -4)"/></g></g><g id="body-group" style="transform-origin:108px 236px" class="sh-body-group"><g id="legs" class="sh-legs"><ellipse cx="86" cy="230" rx="17" ry="10" fill="#98461B"/><ellipse cx="130" cy="230" rx="17" ry="10" fill="#98461B"/></g><path id="torso" d="M108 132 C140 132 152 168 150 196 C148 222 132 232 108 232 C84 232 68 222 66 196 C64 168 76 132 108 132 Z" fill="url(#dana-think-fur)" class="sh-torso"/><path id="belly" d="M108 150 C126 150 134 176 132 198 C130 216 120 224 108 224 C96 224 86 216 84 198 C82 176 90 150 108 150 Z" fill="#F7E1BC" class="sh-belly"/><g id="satchel" class="sh-satchel"><path d="M78 142 L140 200" stroke="#2C5E42" stroke-width="7" stroke-linecap="round"/><rect x="124" y="190" width="34" height="28" rx="7" fill="#3F7F5B"/><path d="M124 196 Q141 210 158 196 L158 192 Q141 186 124 192 Z" fill="#2C5E42"/><circle cx="141" cy="203" r="2.6" fill="#E3A93A"/><g id="acorn" transform="translate(140 184)" class="sh-acorn"><ellipse cx="0" cy="4" rx="6" ry="7" fill="#B9773C"/><path d="M-7 0 Q0 -7 7 0 Q0 2 -7 0 Z" fill="#6E4321"/><rect x="-1" y="-8" width="2" height="5" rx="1" fill="#6E4321"/></g></g><g id="arm-l" class="limb sh-arm-l" style="transform-origin:74px 160px"><g transform="rotate(20 74 160)"><rect x="66.5" y="152.5" width="15" height="32" rx="7.5" fill="#98461B"/><circle cx="74" cy="184.5" r="9.3" fill="#CB6B2E"/></g></g><g id="arm-r-wrap" class="sh-arm-r-wrap"><g id="arm-r" class="limb sh-arm-r" style="transform-origin:142px 160px"><g transform="rotate(-160 142 160)"><rect x="134.5" y="152.5" width="15" height="32" rx="7.5" fill="#98461B"/><circle cx="142" cy="184.5" r="9.3" fill="#CB6B2E"/></g></g></g></g><g id="head" style="transform-origin:108px 138px" class="sh-head"><g transform="rotate(-7 108 138)"><g id="ear-l" class="sh-ear-l"><path d="M86 70 C86 46 76 30 66 22 C56 34 56 52 60 66 Z" fill="#CB6B2E"/><path d="M79 64 C79 48 72 38 67 32 C61 42 62 54 64 62 Z" fill="#F2A68C"/><path d="M66 22 l4 -9 M66 22 l-2 -10 M66 22 l-7 -6" stroke="#98461B" stroke-width="3" stroke-linecap="round"/></g><g id="ear-r" class="sh-ear-r"><path d="M130 70 C130 46 140 30 150 22 C160 34 160 52 156 66 Z" fill="#CB6B2E"/><path d="M137 64 C137 48 144 38 149 32 C155 42 154 54 152 62 Z" fill="#F2A68C"/><path d="M150 22 l-4 -9 M150 22 l2 -10 M150 22 l7 -6" stroke="#98461B" stroke-width="3" stroke-linecap="round"/></g><path id="skull" d="M108 48 C148 48 162 76 162 102 C162 130 140 146 108 146 C76 146 54 130 54 102 C54 76 68 48 108 48 Z" fill="url(#dana-think-fur)" class="sh-skull"/><ellipse cx="86" cy="66" rx="18" ry="8" fill="#FFFFFF" opacity=".13" transform="rotate(-18 86 66)"/><g id="face" class="sh-face"><path id="muzzle" d="M108 106 C126 106 136 116 134 128 C132 140 120 144 108 144 C96 144 84 140 82 128 C80 116 90 106 108 106 Z" fill="#F7E1BC" class="sh-muzzle"/><path d="M66 100 C64 84 74 76 86 78" fill="none" stroke="#F7E1BC" stroke-width="0"/><g id="cheeks" opacity=".72" class="sh-cheeks"><ellipse cx="70" cy="120" rx="9" ry="5.58" fill="#FF7E9C"/><ellipse cx="146" cy="120" rx="9" ry="5.58" fill="#FF7E9C"/></g><g id="eye-l" class="eye sh-eye-l" style="transform-origin:86px 98px"><ellipse cx="86" cy="98" rx="14" ry="16" fill="#FFFFFF"/><circle cx="84" cy="92" r="11" fill="#2D6E6A"/><circle cx="84" cy="92.5" r="6.8" fill="#10181C"/><circle cx="79.8" cy="87.4" r="4" fill="#FFFFFF"/><circle cx="88.6" cy="96.2" r="1.8" fill="#FFFFFF" opacity=".9"/><ellipse cx="86" cy="98" rx="14" ry="16" fill="none" stroke="#1E2F35" stroke-opacity=".18" stroke-width="1.5"/></g><g id="eye-r" class="eye sh-eye-r" style="transform-origin:130px 98px"><ellipse cx="130" cy="98" rx="18" ry="20" fill="#FFFFFF"/><circle cx="128" cy="92" r="14" fill="#2D6E6A"/><circle cx="128" cy="92.5" r="8.7" fill="#10181C"/><circle cx="122.7" cy="86.1" r="5" fill="#FFFFFF"/><circle cx="133.9" cy="97.3" r="2.2" fill="#FFFFFF" opacity=".9"/><ellipse cx="130" cy="98" rx="18" ry="20" fill="none" stroke="#1E2F35" stroke-opacity=".18" stroke-width="1.5"/></g><g id="brows" fill="none" stroke="#98461B" stroke-width="3.2" stroke-linecap="round" opacity=".75" class="sh-brows"><path d="M78 73 Q86 72 94 79"/><path d="M122 74 Q130 72 138 78"/></g><path id="nose" d="M102 114 Q108 110 114 114 Q112 120 108 121 Q104 120 102 114 Z" fill="#3B2117" class="sh-nose"/><g id="mouth" class="sh-mouth"><path d="M102.6 127 Q110 131 114.3 123" fill="none" stroke="#1E2F35" stroke-width="3.6" stroke-linecap="round"/></g><rect id="teeth" x="104.5" y="128" width="7" height="5" rx="1.5" fill="#FFFFFF" opacity="0.95" class="sh-teeth"/></g><g id="magnifier" class="sh-magnifier"><path d="M150 112 L168 150" stroke="#7A4A26" stroke-width="7" stroke-linecap="round"/><circle cx="130" cy="98" r="23" fill="#CFEFF4" opacity=".35" stroke="#E3A93A" stroke-width="6"/><path d="M118 88 Q124 82 132 84" stroke="#FFFFFF" stroke-width="3" fill="none" stroke-linecap="round"/></g></g></g></g></svg>